<svg width="253" height="212" viewBox="0 0 253 212" fill="none" xmlns="http://www.w3.org/2000/svg">
<path d="M42.7932 5.4674C26.7048 11.6634 5.42667 39.5453 1.79381 59.1659C-4.95292 93.2438 5.94565 113.897 58.3626 164.498C101.957 207.353 108.704 212 126.349 212C143.994 212 150.741 207.353 194.854 164.498C246.752 113.381 257.651 93.7601 251.423 60.7149C242.081 11.6634 183.956 -15.7022 141.918 9.59805C126.868 18.892 125.83 18.892 110.78 9.59805C94.6912 -0.212244 61.4765 -2.27757 42.7932 5.4674ZM107.147 33.8656C115.969 41.0943 124.273 46.7739 126.349 46.7739C128.425 46.7739 136.729 41.0943 145.551 33.8656C184.475 1.33675 240.006 35.4146 230.664 86.0151C227.55 102.538 218.208 113.897 182.399 148.491C154.893 174.824 133.615 191.347 126.868 191.347C112.337 190.83 36.5655 117.511 26.7048 94.2764C16.8442 71.0415 22.034 50.3882 41.7553 33.8656C61.9955 16.8267 86.9065 16.8267 107.147 33.8656Z" fill="#3B82F6"/>
<path d="M75.4889 81.8845L56.2867 101.505L76.0079 120.609C86.9065 130.936 98.324 139.714 101.957 139.714C112.855 139.714 108.704 125.256 94.1722 113.897L79.6408 102.538L94.6912 90.6621C104.552 82.9171 108.704 75.6885 106.628 70.5252C101.957 58.1332 96.7671 60.1985 75.4889 81.8845Z" fill="#3B82F6"/>
<path d="M146.589 70.0089C144.513 74.1395 149.703 82.9172 158.526 90.1458L173.057 103.054L157.488 115.962C145.551 125.773 143.475 129.903 148.146 135.067C152.817 139.714 159.045 137.648 175.133 124.74C187.07 115.446 196.411 106.152 196.411 104.087C196.411 99.4398 158.007 62.2639 153.336 62.2639C151.26 62.2639 148.146 65.8782 146.589 70.0089Z" fill="#3B82F6"/>
</svg>
